<svg width="42" height="39" viewBox="0 0 42 39" fill="none" xmlns="http://www.w3.org/2000/svg">
<path d="M20.6005 34.0445L20.0215 34.8598L20.5698 35.2492L21.1372 34.8883L20.6005 34.0445ZM21.4206 2L21.9996 1.1847L21.4514 0.795329L20.884 1.15618L21.4206 2ZM2 35.1964L1.00072 35.1584L0.975617 35.8175L1.57165 36.1L2 35.1964ZM29.5437 18.4942L30.543 18.5323L30.5681 17.8732L29.972 17.5906L29.5437 18.4942ZM12.4689 18.7709L12.0114 17.8817L11.4541 18.1684L11.4691 18.795L12.4689 18.7709ZM40.5811 35.4712L41.0386 36.3604L41.5959 36.0737L41.5808 35.4471L40.5811 35.4712ZM28.5579 17.7465C28.5579 24.2444 25.1722 29.9521 20.0639 33.2007L21.1372 34.8883C26.7983 31.2881 30.5579 24.9567 30.5579 17.7465H28.5579ZM20.8416 2.8153C25.5132 6.13315 28.5579 11.5843 28.5579 17.7465H30.5579C30.5579 10.9092 27.1767 4.86154 21.9996 1.1847L20.8416 2.8153ZM13.4632 18.298C13.4632 11.8002 16.8489 6.09244 21.9572 2.84382L20.884 1.15618C15.2229 4.75637 11.4632 11.0878 11.4632 18.298H13.4632ZM21.1796 33.2292C16.5079 29.9114 13.4632 24.4602 13.4632 18.298H11.4632C11.4632 25.1354 14.8444 31.183 20.0215 34.8598L21.1796 33.2292ZM2.99928 35.2345C3.37173 25.4567 11.4168 17.6436 21.2863 17.6436V15.6436C10.3378 15.6436 1.41394 24.3105 1.00072 35.1584L2.99928 35.2345ZM21.2863 17.6436C24.0896 17.6436 26.743 18.2732 29.1153 19.3978L29.972 17.5906C27.3376 16.3418 24.3921 15.6436 21.2863 15.6436V17.6436ZM28.5444 18.4562C28.172 28.234 20.1269 36.047 10.2574 36.047V38.047C21.2059 38.047 30.1297 29.3801 30.543 18.5323L28.5444 18.4562ZM10.2574 36.047C7.45413 36.047 4.80069 35.4174 2.42835 34.2928L1.57165 36.1C4.2061 37.3489 7.15162 38.047 10.2574 38.047V36.047ZM12.9263 19.6601C15.4311 18.3715 18.2722 17.6436 21.2863 17.6436V15.6436C17.9466 15.6436 14.7926 16.4508 12.0114 17.8817L12.9263 19.6601ZM21.2863 17.6436C31.2433 17.6436 39.3433 25.5958 39.5814 35.4952L41.5808 35.4471C41.3167 24.4648 32.3318 15.6436 21.2863 15.6436V17.6436ZM40.1236 34.582C37.6188 35.8706 34.7777 36.5985 31.7637 36.5985V38.5985C35.1033 38.5985 38.2574 37.7912 41.0386 36.3604L40.1236 34.582ZM31.7637 36.5985C21.8066 36.5985 13.7066 28.6463 13.4686 18.7469L11.4691 18.795C11.7333 29.7773 20.7182 38.5985 31.7637 38.5985V36.5985Z" fill="#E4B750"/>
</svg>
